# xmcd CD database file
#
# Track frame offsets:
#	183
#	11935
#	25475
#	40668
#	53078
#	64310
#	79613
#	93655
#	106065
#	117360
#	130260
#	147293
#	161715
#	173475
#	193393
#
# Disc length: 2750 seconds
#
# Revision: 1
# Processed by: cddbd v1.4b42PL1 Copyright (c) Steve Scherf et al.
# Submitted via: CDex 1.40Beta8
#
DISCID=cf0abc0f
DTITLE=Románticos de Cuba - 30 Exitos. Vo.1.
DYEAR=1900
DGENRE=Country
TTITLE0=Fascinacion-Ectasy
TTITLE1=Amapola-Siete notas de amor
TTITLE2=Sonríe-Candilejas
TTITLE3=Aquellos ojos verdes-Noche de ronda
TTITLE4=Till-Cartas de amor
TTITLE5=Besame mucho-Dos almas
TTITLE6=Bolero-Siempre en mi corazón
TTITLE7=María Elena-Te quiero dijiste
TTITLE8=Espérame en el cielo-Tu me acostumbraste
TTITLE9=Sus manos-Yo no existo sin tí
TTITLE10=Más-Aldila
TTITLE11=Cuando-Arrivederci
TTITLE12=Persono pero no olvido-Donde estará mi vida
TTITLE13=Quiereme mucho-Vereda Tropical
TTITLE14=Sin tí-Rayito de luna
EXTD=ID3G: 2
EXTT0=
EXTT1=
EXTT2=
EXTT3=
EXTT4=
EXTT5=
EXTT6=
EXTT7=
EXTT8=
EXTT9=
EXTT10=
EXTT11=
EXTT12=
EXTT13=
EXTT14=
PLAYORDER=
